<?xml version="1.0" encoding="utf-8" standalone="no"?>
<!DOCTYPE svg PUBLIC "-//W3C//DTD SVG 1.1//EN"
  "http://www.w3.org/Graphics/SVG/1.1/DTD/svg11.dtd">
<svg xmlns:xlink="http://www.w3.org/1999/xlink" width="470.237259pt" height="258.38208pt" viewBox="0 0 470.237259 258.38208" xmlns="http://www.w3.org/2000/svg" version="1.1">
 <metadata>
  <rdf:RDF xmlns:dc="http://purl.org/dc/elements/1.1/" xmlns:cc="http://creativecommons.org/ns#" xmlns:rdf="http://www.w3.org/1999/02/22-rdf-syntax-ns#">
   <cc:Work>
    <dc:type rdf:resource="http://purl.org/dc/dcmitype/StillImage"/>
    <dc:date>2026-09-11T17:00:20.055569</dc:date>
    <dc:format>image/svg+xml</dc:format>
    <dc:creator>
     <cc:Agent>
      <dc:title>Matplotlib v3.10.8, https://matplotlib.org/</dc:title>
     </cc:Agent>
    </dc:creator>
   </cc:Work>
  </rdf:RDF>
 </metadata>
 <defs>
  <style type="text/css">*{stroke-linejoin: round; stroke-linecap: butt}</style>
 </defs>
 <g id="figure_1">
  <g id="patch_1">
   <path d="M 0 258.38208 
L 470.237259 258.38208 
L 470.237259 0 
L 0 0 
z
" style="fill: #ffffff"/>
  </g>
  <g id="axes_1">
   <g id="patch_2">
    <path d="M 28.610859 208.4256 
L 467.717259 208.4256 
L 467.717259 36.4032 
L 28.610859 36.4032 
z
" style="fill: #ffffff"/>
   </g>
   <g id="matplotlib.axis_1">
    <g id="xtick_1">
     <g id="line2d_1">
      <defs>
       <path id="m55b96d7f1b" d="M 0 0 
L 0 3 
" style="stroke: #555555; stroke-width: 0.65"/>
      </defs>
      <g>
       <use xlink:href="#m55b96d7f1b" x="48.570241" y="208.4256" style="fill: #555555; stroke: #555555; stroke-width: 0.65"/>
      </g>
     </g>
     <g id="text_1">
      <text style="font-size: 7.8px; font-family: 'Times New Roman', 'SimSun', 'DejaVu Serif'; text-anchor: middle; fill: #555555" x="48.570241" y="219.341725" transform="rotate(-0 48.570241 219.341725)">30</text>
     </g>
    </g>
    <g id="xtick_2">
     <g id="line2d_2">
      <g>
       <use xlink:href="#m55b96d7f1b" x="115.101514" y="208.4256" style="fill: #555555; stroke: #555555; stroke-width: 0.65"/>
      </g>
     </g>
     <g id="text_2">
      <text style="font-size: 7.8px; font-family: 'Times New Roman', 'SimSun', 'DejaVu Serif'; text-anchor: middle; fill: #555555" x="115.101514" y="219.341725" transform="rotate(-0 115.101514 219.341725)">45</text>
     </g>
    </g>
    <g id="xtick_3">
     <g id="line2d_3">
      <g>
       <use xlink:href="#m55b96d7f1b" x="181.632787" y="208.4256" style="fill: #555555; stroke: #555555; stroke-width: 0.65"/>
      </g>
     </g>
     <g id="text_3">
      <text style="font-size: 7.8px; font-family: 'Times New Roman', 'SimSun', 'DejaVu Serif'; text-anchor: middle; fill: #555555" x="181.632787" y="219.341725" transform="rotate(-0 181.632787 219.341725)">60</text>
     </g>
    </g>
    <g id="xtick_4">
     <g id="line2d_4">
      <g>
       <use xlink:href="#m55b96d7f1b" x="314.695332" y="208.4256" style="fill: #555555; stroke: #555555; stroke-width: 0.65"/>
      </g>
     </g>
     <g id="text_4">
      <text style="font-size: 7.8px; font-family: 'Times New Roman', 'SimSun', 'DejaVu Serif'; text-anchor: middle; fill: #555555" x="314.695332" y="219.341725" transform="rotate(-0 314.695332 219.341725)">90</text>
     </g>
    </g>
    <g id="xtick_5">
     <g id="line2d_5">
      <g>
       <use xlink:href="#m55b96d7f1b" x="447.757878" y="208.4256" style="fill: #555555; stroke: #555555; stroke-width: 0.65"/>
      </g>
     </g>
     <g id="text_5">
      <text style="font-size: 7.8px; font-family: 'Times New Roman', 'SimSun', 'DejaVu Serif'; text-anchor: middle; fill: #555555" x="447.757878" y="219.341725" transform="rotate(-0 447.757878 219.341725)">120</text>
     </g>
    </g>
    <g id="text_6">
     <text style="font-size: 8.5px; font-family: 'Times New Roman', 'SimSun', 'DejaVu Serif'; text-anchor: middle; fill: #333333" x="248.164059" y="231.094334" transform="rotate(-0 248.164059 231.094334)">交会角（°）</text>
    </g>
   </g>
   <g id="matplotlib.axis_2">
    <g id="ytick_1">
     <g id="line2d_6">
      <path d="M 28.610859 206.523625 
L 467.717259 206.523625 
" clip-path="url(#p3cfbcd0297)" style="fill: none; stroke: #d9d9d9; stroke-opacity: 0.9; stroke-width: 0.45; stroke-linecap: square"/>
     </g>
     <g id="line2d_7">
      <defs>
       <path id="m1c4e0285eb" d="M 0 0 
L -3 0 
" style="stroke: #555555; stroke-width: 0.65"/>
      </defs>
      <g>
       <use xlink:href="#m1c4e0285eb" x="28.610859" y="206.523625" style="fill: #555555; stroke: #555555; stroke-width: 0.65"/>
      </g>
     </g>
     <g id="text_7">
      <text style="font-size: 7.8px; font-family: 'Times New Roman', 'SimSun', 'DejaVu Serif'; text-anchor: end; fill: #555555" x="23.110859" y="209.231688" transform="rotate(-0 23.110859 209.231688)">0</text>
     </g>
    </g>
    <g id="ytick_2">
     <g id="line2d_8">
      <path d="M 28.610859 180.71421 
L 467.717259 180.71421 
" clip-path="url(#p3cfbcd0297)" style="fill: none; stroke: #d9d9d9; stroke-opacity: 0.9; stroke-width: 0.45; stroke-linecap: square"/>
     </g>
     <g id="line2d_9">
      <g>
       <use xlink:href="#m1c4e0285eb" x="28.610859" y="180.71421" style="fill: #555555; stroke: #555555; stroke-width: 0.65"/>
      </g>
     </g>
     <g id="text_8">
      <text style="font-size: 7.8px; font-family: 'Times New Roman', 'SimSun', 'DejaVu Serif'; text-anchor: end; fill: #555555" x="23.110859" y="183.422272" transform="rotate(-0 23.110859 183.422272)">10</text>
     </g>
    </g>
    <g id="ytick_3">
     <g id="line2d_10">
      <path d="M 28.610859 154.904794 
L 467.717259 154.904794 
" clip-path="url(#p3cfbcd0297)" style="fill: none; stroke: #d9d9d9; stroke-opacity: 0.9; stroke-width: 0.45; stroke-linecap: square"/>
     </g>
     <g id="line2d_11">
      <g>
       <use xlink:href="#m1c4e0285eb" x="28.610859" y="154.904794" style="fill: #555555; stroke: #555555; stroke-width: 0.65"/>
      </g>
     </g>
     <g id="text_9">
      <text style="font-size: 7.8px; font-family: 'Times New Roman', 'SimSun', 'DejaVu Serif'; text-anchor: end; fill: #555555" x="23.110859" y="157.612856" transform="rotate(-0 23.110859 157.612856)">20</text>
     </g>
    </g>
    <g id="ytick_4">
     <g id="line2d_12">
      <path d="M 28.610859 129.095378 
L 467.717259 129.095378 
" clip-path="url(#p3cfbcd0297)" style="fill: none; stroke: #d9d9d9; stroke-opacity: 0.9; stroke-width: 0.45; stroke-linecap: square"/>
     </g>
     <g id="line2d_13">
      <g>
       <use xlink:href="#m1c4e0285eb" x="28.610859" y="129.095378" style="fill: #555555; stroke: #555555; stroke-width: 0.65"/>
      </g>
     </g>
     <g id="text_10">
      <text style="font-size: 7.8px; font-family: 'Times New Roman', 'SimSun', 'DejaVu Serif'; text-anchor: end; fill: #555555" x="23.110859" y="131.80344" transform="rotate(-0 23.110859 131.80344)">30</text>
     </g>
    </g>
    <g id="ytick_5">
     <g id="line2d_14">
      <path d="M 28.610859 103.285962 
L 467.717259 103.285962 
" clip-path="url(#p3cfbcd0297)" style="fill: none; stroke: #d9d9d9; stroke-opacity: 0.9; stroke-width: 0.45; stroke-linecap: square"/>
     </g>
     <g id="line2d_15">
      <g>
       <use xlink:href="#m1c4e0285eb" x="28.610859" y="103.285962" style="fill: #555555; stroke: #555555; stroke-width: 0.65"/>
      </g>
     </g>
     <g id="text_11">
      <text style="font-size: 7.8px; font-family: 'Times New Roman', 'SimSun', 'DejaVu Serif'; text-anchor: end; fill: #555555" x="23.110859" y="105.994025" transform="rotate(-0 23.110859 105.994025)">40</text>
     </g>
    </g>
    <g id="ytick_6">
     <g id="line2d_16">
      <path d="M 28.610859 77.476546 
L 467.717259 77.476546 
" clip-path="url(#p3cfbcd0297)" style="fill: none; stroke: #d9d9d9; stroke-opacity: 0.9; stroke-width: 0.45; stroke-linecap: square"/>
     </g>
     <g id="line2d_17">
      <g>
       <use xlink:href="#m1c4e0285eb" x="28.610859" y="77.476546" style="fill: #555555; stroke: #555555; stroke-width: 0.65"/>
      </g>
     </g>
     <g id="text_12">
      <text style="font-size: 7.8px; font-family: 'Times New Roman', 'SimSun', 'DejaVu Serif'; text-anchor: end; fill: #555555" x="23.110859" y="80.184609" transform="rotate(-0 23.110859 80.184609)">50</text>
     </g>
    </g>
    <g id="ytick_7">
     <g id="line2d_18">
      <path d="M 28.610859 51.66713 
L 467.717259 51.66713 
" clip-path="url(#p3cfbcd0297)" style="fill: none; stroke: #d9d9d9; stroke-opacity: 0.9; stroke-width: 0.45; stroke-linecap: square"/>
     </g>
     <g id="line2d_19">
      <g>
       <use xlink:href="#m1c4e0285eb" x="28.610859" y="51.66713" style="fill: #555555; stroke: #555555; stroke-width: 0.65"/>
      </g>
     </g>
     <g id="text_13">
      <text style="font-size: 7.8px; font-family: 'Times New Roman', 'SimSun', 'DejaVu Serif'; text-anchor: end; fill: #555555" x="23.110859" y="54.375193" transform="rotate(-0 23.110859 54.375193)">60</text>
     </g>
    </g>
    <g id="text_14">
     <text style="font-size: 8.5px; font-family: 'Times New Roman', 'SimSun', 'DejaVu Serif'; text-anchor: middle; fill: #333333" x="9.492656" y="122.4144" transform="rotate(-90 9.492656 122.4144)">区域质心定位误差 (m)</text>
    </g>
   </g>
   <g id="FillBetweenPolyCollection_1">
    <defs>
     <path id="mf28c33a823" d="M 48.570241 -137.507362 
L 48.570241 -109.323318 
L 115.101514 -93.887932 
L 181.632787 -87.337431 
L 314.695332 -83.614422 
L 447.757878 -87.235827 
L 447.757878 -98.927266 
L 447.757878 -98.927266 
L 314.695332 -92.478496 
L 181.632787 -99.522508 
L 115.101514 -110.876331 
L 48.570241 -137.507362 
z
" style="stroke: #5b7fa3; stroke-opacity: 0.2"/>
    </defs>
    <g clip-path="url(#p3cfbcd0297)">
     <use xlink:href="#mf28c33a823" x="0" y="258.38208" style="fill: #5b7fa3; fill-opacity: 0.2; stroke: #5b7fa3; stroke-opacity: 0.2"/>
    </g>
   </g>
   <g id="line2d_20">
    <path d="M 48.570241 113.412534 
L 115.101514 146.089413 
L 181.632787 160.999168 
L 314.695332 174.121399 
L 447.757878 178.023974 
" clip-path="url(#p3cfbcd0297)" style="fill: none; stroke: #9aa0a6; stroke-opacity: 0.18; stroke-width: 0.5; stroke-linecap: square"/>
   </g>
   <g id="line2d_21">
    <path d="M 48.570241 150.087445 
L 115.101514 161.548373 
L 181.632787 166.056668 
L 314.695332 165.451679 
L 447.757878 153.294653 
" clip-path="url(#p3cfbcd0297)" style="fill: none; stroke: #9aa0a6; stroke-opacity: 0.18; stroke-width: 0.5; stroke-linecap: square"/>
   </g>
   <g id="line2d_22">
    <path d="M 48.570241 139.030493 
L 115.101514 162.987815 
L 181.632787 173.771206 
L 314.695332 182.999059 
L 447.757878 185.167937 
" clip-path="url(#p3cfbcd0297)" style="fill: none; stroke: #9aa0a6; stroke-opacity: 0.18; stroke-width: 0.5; stroke-linecap: square"/>
   </g>
   <g id="line2d_23">
    <path d="M 48.570241 122.6059 
L 115.101514 149.67073 
L 181.632787 160.814564 
L 314.695332 166.914409 
L 447.757878 160.14201 
" clip-path="url(#p3cfbcd0297)" style="fill: none; stroke: #9aa0a6; stroke-opacity: 0.18; stroke-width: 0.5; stroke-linecap: square"/>
   </g>
   <g id="line2d_24">
    <path d="M 48.570241 182.598909 
L 115.101514 184.485068 
L 181.632787 183.756147 
L 314.695332 179.083261 
L 447.757878 167.857274 
" clip-path="url(#p3cfbcd0297)" style="fill: none; stroke: #9aa0a6; stroke-opacity: 0.18; stroke-width: 0.5; stroke-linecap: square"/>
   </g>
   <g id="line2d_25">
    <path d="M 48.570241 149.593249 
L 115.101514 166.877956 
L 181.632787 173.229126 
L 314.695332 174.761902 
L 447.757878 166.356242 
" clip-path="url(#p3cfbcd0297)" style="fill: none; stroke: #9aa0a6; stroke-opacity: 0.18; stroke-width: 0.5; stroke-linecap: square"/>
   </g>
   <g id="line2d_26">
    <path d="M 48.570241 176.611761 
L 115.101514 182.397171 
L 181.632787 185.049575 
L 314.695332 185.495122 
L 447.757878 180.133869 
" clip-path="url(#p3cfbcd0297)" style="fill: none; stroke: #9aa0a6; stroke-opacity: 0.18; stroke-width: 0.5; stroke-linecap: square"/>
   </g>
   <g id="line2d_27">
    <path d="M 48.570241 113.6499 
L 115.101514 143.116263 
L 181.632787 155.125288 
L 314.695332 161.246771 
L 447.757878 152.808947 
" clip-path="url(#p3cfbcd0297)" style="fill: none; stroke: #9aa0a6; stroke-opacity: 0.18; stroke-width: 0.5; stroke-linecap: square"/>
   </g>
   <g id="line2d_28">
    <path d="M 48.570241 138.073691 
L 115.101514 158.036083 
L 181.632787 168.470862 
L 314.695332 178.789071 
L 447.757878 183.32852 
" clip-path="url(#p3cfbcd0297)" style="fill: none; stroke: #9aa0a6; stroke-opacity: 0.18; stroke-width: 0.5; stroke-linecap: square"/>
   </g>
   <g id="line2d_29">
    <path d="M 48.570241 161.478365 
L 115.101514 171.981746 
L 181.632787 176.865018 
L 314.695332 179.012894 
L 447.757878 173.263562 
" clip-path="url(#p3cfbcd0297)" style="fill: none; stroke: #9aa0a6; stroke-opacity: 0.18; stroke-width: 0.5; stroke-linecap: square"/>
   </g>
   <g id="line2d_30">
    <path d="M 48.570241 83.001707 
L 115.101514 126.151043 
L 181.632787 145.955803 
L 314.695332 163.597742 
L 447.757878 169.376849 
" clip-path="url(#p3cfbcd0297)" style="fill: none; stroke: #9aa0a6; stroke-opacity: 0.18; stroke-width: 0.5; stroke-linecap: square"/>
   </g>
   <g id="line2d_31">
    <path d="M 48.570241 105.610919 
L 115.101514 139.316138 
L 181.632787 153.916108 
L 314.695332 164.112981 
L 447.757878 160.586004 
" clip-path="url(#p3cfbcd0297)" style="fill: none; stroke: #9aa0a6; stroke-opacity: 0.18; stroke-width: 0.5; stroke-linecap: square"/>
   </g>
   <g id="line2d_32">
    <path d="M 48.570241 175.080741 
L 115.101514 173.566701 
L 181.632787 171.412103 
L 314.695332 163.631963 
L 447.757878 145.930721 
" clip-path="url(#p3cfbcd0297)" style="fill: none; stroke: #9aa0a6; stroke-opacity: 0.18; stroke-width: 0.5; stroke-linecap: square"/>
   </g>
   <g id="line2d_33">
    <path d="M 48.570241 165.34787 
L 115.101514 166.511349 
L 181.632787 164.678366 
L 314.695332 155.843181 
L 447.757878 135.11303 
" clip-path="url(#p3cfbcd0297)" style="fill: none; stroke: #9aa0a6; stroke-opacity: 0.18; stroke-width: 0.5; stroke-linecap: square"/>
   </g>
   <g id="line2d_34">
    <path d="M 48.570241 128.498409 
L 115.101514 152.114465 
L 181.632787 161.125472 
L 314.695332 164.014255 
L 447.757878 153.60002 
" clip-path="url(#p3cfbcd0297)" style="fill: none; stroke: #9aa0a6; stroke-opacity: 0.18; stroke-width: 0.5; stroke-linecap: square"/>
   </g>
   <g id="line2d_35">
    <path d="M 48.570241 169.027033 
L 115.101514 179.144656 
L 181.632787 182.064468 
L 314.695332 180.744868 
L 447.757878 171.99381 
" clip-path="url(#p3cfbcd0297)" style="fill: none; stroke: #9aa0a6; stroke-opacity: 0.18; stroke-width: 0.5; stroke-linecap: square"/>
   </g>
   <g id="line2d_36">
    <path d="M 48.570241 173.670086 
L 115.101514 181.969875 
L 181.632787 184.049777 
L 314.695332 182.101278 
L 447.757878 173.347692 
" clip-path="url(#p3cfbcd0297)" style="fill: none; stroke: #9aa0a6; stroke-opacity: 0.18; stroke-width: 0.5; stroke-linecap: square"/>
   </g>
   <g id="line2d_37">
    <path d="M 48.570241 51.334004 
L 115.101514 105.838848 
L 181.632787 131.038995 
L 314.695332 154.206005 
L 447.757878 163.957094 
" clip-path="url(#p3cfbcd0297)" style="fill: none; stroke: #9aa0a6; stroke-opacity: 0.18; stroke-width: 0.5; stroke-linecap: square"/>
   </g>
   <g id="line2d_38">
    <path d="M 48.570241 119.32968 
L 115.101514 143.719907 
L 181.632787 155.705952 
L 314.695332 165.091362 
L 447.757878 162.712781 
" clip-path="url(#p3cfbcd0297)" style="fill: none; stroke: #9aa0a6; stroke-opacity: 0.18; stroke-width: 0.5; stroke-linecap: square"/>
   </g>
   <g id="line2d_39">
    <path d="M 48.570241 200.6064 
L 115.101514 200.19153 
L 181.632787 200.321897 
L 314.695332 200.103446 
L 447.757878 198.479737 
" clip-path="url(#p3cfbcd0297)" style="fill: none; stroke: #9aa0a6; stroke-opacity: 0.18; stroke-width: 0.5; stroke-linecap: square"/>
   </g>
   <g id="line2d_40">
    <path d="M 48.570241 45.629619 
L 115.101514 102.212535 
L 181.632787 128.403696 
L 314.695332 152.617124 
L 447.757878 163.229203 
" clip-path="url(#p3cfbcd0297)" style="fill: none; stroke: #9aa0a6; stroke-opacity: 0.18; stroke-width: 0.5; stroke-linecap: square"/>
   </g>
   <g id="line2d_41">
    <path d="M 48.570241 152.422867 
L 115.101514 159.948013 
L 181.632787 160.428043 
L 314.695332 152.967106 
L 447.757878 132.221576 
" clip-path="url(#p3cfbcd0297)" style="fill: none; stroke: #9aa0a6; stroke-opacity: 0.18; stroke-width: 0.5; stroke-linecap: square"/>
   </g>
   <g id="line2d_42">
    <path d="M 48.570241 107.850989 
L 115.101514 142.577586 
L 181.632787 158.527097 
L 314.695332 172.903268 
L 447.757878 178.15584 
" clip-path="url(#p3cfbcd0297)" style="fill: none; stroke: #9aa0a6; stroke-opacity: 0.18; stroke-width: 0.5; stroke-linecap: square"/>
   </g>
   <g id="line2d_43">
    <path d="M 48.570241 123.24019 
L 115.101514 147.695234 
L 181.632787 160.310006 
L 314.695332 172.473062 
L 447.757878 176.98726 
" clip-path="url(#p3cfbcd0297)" style="fill: none; stroke: #9aa0a6; stroke-opacity: 0.18; stroke-width: 0.5; stroke-linecap: square"/>
   </g>
   <g id="line2d_44">
    <path d="M 48.570241 145.892875 
L 115.101514 161.647182 
L 181.632787 166.52891 
L 314.695332 164.920275 
L 447.757878 151.37425 
" clip-path="url(#p3cfbcd0297)" style="fill: none; stroke: #9aa0a6; stroke-opacity: 0.18; stroke-width: 0.5; stroke-linecap: square"/>
   </g>
   <g id="line2d_45">
    <path d="M 48.570241 147.526402 
L 115.101514 162.193953 
L 181.632787 169.007087 
L 314.695332 172.530041 
L 447.757878 166.11873 
" clip-path="url(#p3cfbcd0297)" style="fill: none; stroke: #9aa0a6; stroke-opacity: 0.18; stroke-width: 0.5; stroke-linecap: square"/>
   </g>
   <g id="line2d_46">
    <path d="M 48.570241 169.185653 
L 115.101514 178.555053 
L 181.632787 183.382421 
L 314.695332 187.061228 
L 447.757878 185.455007 
" clip-path="url(#p3cfbcd0297)" style="fill: none; stroke: #9aa0a6; stroke-opacity: 0.18; stroke-width: 0.5; stroke-linecap: square"/>
   </g>
   <g id="line2d_47">
    <path d="M 48.570241 165.094096 
L 115.101514 164.184294 
L 181.632787 161.969676 
L 314.695332 152.644719 
L 447.757878 130.650631 
" clip-path="url(#p3cfbcd0297)" style="fill: none; stroke: #9aa0a6; stroke-opacity: 0.18; stroke-width: 0.5; stroke-linecap: square"/>
   </g>
   <g id="line2d_48">
    <path d="M 48.570241 154.952904 
L 115.101514 173.565437 
L 181.632787 181.802237 
L 314.695332 188.656829 
L 447.757878 189.868361 
" clip-path="url(#p3cfbcd0297)" style="fill: none; stroke: #9aa0a6; stroke-opacity: 0.18; stroke-width: 0.5; stroke-linecap: square"/>
   </g>
   <g id="line2d_49">
    <path d="M 48.570241 44.2224 
L 115.101514 101.307466 
L 181.632787 127.739398 
L 314.695332 152.164031 
L 447.757878 162.901719 
" clip-path="url(#p3cfbcd0297)" style="fill: none; stroke: #9aa0a6; stroke-opacity: 0.18; stroke-width: 0.5; stroke-linecap: square"/>
   </g>
   <g id="line2d_50">
    <path d="M 48.570241 135.822236 
L 115.101514 156.320063 
L 181.632787 165.083504 
L 314.695332 170.342011 
L 447.757878 165.74791 
" clip-path="url(#p3cfbcd0297)" style="fill: none; stroke: #5b7fa3; stroke-width: 1.45; stroke-linecap: square"/>
    <defs>
     <path id="mb6b56f7bc4" d="M 0 2.1 
C 0.556927 2.1 1.091118 1.878731 1.484924 1.484924 
C 1.878731 1.091118 2.1 0.556927 2.1 0 
C 2.1 -0.556927 1.878731 -1.091118 1.484924 -1.484924 
C 1.091118 -1.878731 0.556927 -2.1 0 -2.1 
C -0.556927 -2.1 -1.091118 -1.878731 -1.484924 -1.484924 
C -1.878731 -1.091118 -2.1 -0.556927 -2.1 0 
C -2.1 0.556927 -1.878731 1.091118 -1.484924 1.484924 
C -1.091118 1.878731 -0.556927 2.1 0 2.1 
z
" style="stroke: #5b7fa3"/>
    </defs>
    <g clip-path="url(#p3cfbcd0297)">
     <use xlink:href="#mb6b56f7bc4" x="48.570241" y="135.822236" style="fill: #5b7fa3; stroke: #5b7fa3"/>
     <use xlink:href="#mb6b56f7bc4" x="115.101514" y="156.320063" style="fill: #5b7fa3; stroke: #5b7fa3"/>
     <use xlink:href="#mb6b56f7bc4" x="181.632787" y="165.083504" style="fill: #5b7fa3; stroke: #5b7fa3"/>
     <use xlink:href="#mb6b56f7bc4" x="314.695332" y="170.342011" style="fill: #5b7fa3; stroke: #5b7fa3"/>
     <use xlink:href="#mb6b56f7bc4" x="447.757878" y="165.74791" style="fill: #5b7fa3; stroke: #5b7fa3"/>
    </g>
   </g>
   <g id="patch_3">
    <path d="M 28.610859 208.4256 
L 28.610859 36.4032 
" style="fill: none; stroke: #555555; stroke-width: 0.8; stroke-linejoin: miter; stroke-linecap: square"/>
   </g>
   <g id="patch_4">
    <path d="M 28.610859 208.4256 
L 467.717259 208.4256 
" style="fill: none; stroke: #555555; stroke-width: 0.8; stroke-linejoin: miter; stroke-linecap: square"/>
   </g>
   <g id="PathCollection_1">
    <defs>
     <path id="mdda314f0d3" d="M 0 2.738613 
C 0.726289 2.738613 1.422928 2.450055 1.936492 1.936492 
C 2.450055 1.422928 2.738613 0.726289 2.738613 0 
C 2.738613 -0.726289 2.450055 -1.422928 1.936492 -1.936492 
C 1.422928 -2.450055 0.726289 -2.738613 0 -2.738613 
C -0.726289 -2.738613 -1.422928 -2.450055 -1.936492 -1.936492 
C -2.450055 -1.422928 -2.738613 -0.726289 -2.738613 0 
C -2.738613 0.726289 -2.450055 1.422928 -1.936492 1.936492 
C -1.422928 2.450055 -0.726289 2.738613 0 2.738613 
z
" style="stroke: #b6534b"/>
    </defs>
    <g clip-path="url(#p3cfbcd0297)">
     <use xlink:href="#mdda314f0d3" x="314.695332" y="170.342011" style="fill: #b6534b; stroke: #b6534b"/>
    </g>
   </g>
   <g id="legend_1">
    <g id="patch_5">
     <path d="M 372.466697 48.623762 
L 387.666697 48.623762 
L 387.666697 43.303762 
L 372.466697 43.303762 
z
" style="fill: #5b7fa3; fill-opacity: 0.2; stroke: #5b7fa3; stroke-opacity: 0.2; stroke-linejoin: miter"/>
    </g>
    <g id="text_15">
     <text style="font-size: 7.6px; font-family: 'Times New Roman', 'SimSun', 'DejaVu Serif'; text-anchor: start; fill: #333333" x="393.746697" y="48.623762" transform="rotate(-0 393.746697 48.623762)">均值的95%自举区间</text>
    </g>
    <g id="line2d_51">
     <path d="M 372.466697 56.7997 
L 380.066697 56.7997 
L 387.666697 56.7997 
" style="fill: none; stroke: #5b7fa3; stroke-width: 1.45; stroke-linecap: square"/>
     <g>
      <use xlink:href="#mb6b56f7bc4" x="380.066697" y="56.7997" style="fill: #5b7fa3; stroke: #5b7fa3"/>
     </g>
    </g>
    <g id="text_16">
     <text style="font-size: 7.6px; font-family: 'Times New Roman', 'SimSun', 'DejaVu Serif'; text-anchor: start; fill: #333333" x="393.746697" y="59.4597" transform="rotate(-0 393.746697 59.4597)">重复实验均值</text>
    </g>
    <g id="PathCollection_2">
     <g>
      <use xlink:href="#mdda314f0d3" x="380.066697" y="68.300637" style="fill: #b6534b; stroke: #b6534b"/>
     </g>
    </g>
    <g id="text_17">
     <text style="font-size: 7.6px; font-family: 'Times New Roman', 'SimSun', 'DejaVu Serif'; text-anchor: start; fill: #333333" x="393.746697" y="70.295637" transform="rotate(-0 393.746697 70.295637)">样本均值最小</text>
    </g>
   </g>
  </g>
  <g id="text_18">
   <text style="font-size: 10px; font-family: 'Times New Roman', 'SimSun', 'DejaVu Serif'; text-anchor: middle; fill: #333333" x="230.498859" y="9.677812" transform="rotate(-0 230.498859 9.677812)">图4  交会角与定位误差关系</text>
  </g>
  <g id="text_19">
   <text style="font-size: 7px; font-family: 'Times New Roman', 'SimSun', 'DejaVu Serif'; text-anchor: middle; fill: #555555" x="230.498859" y="254.364736" transform="rotate(-0 230.498859 254.364736)">每个水平30次配对重复；灰线为单次实验，阴影不是位置置信域。</text>
  </g>
 </g>
 <defs>
  <clipPath id="p3cfbcd0297">
   <rect x="28.610859" y="36.4032" width="439.1064" height="172.0224"/>
  </clipPath>
 </defs>
</svg>
